# xmcd
#
# Track frame offsets:
#	150
#	15705
#	27557
#	42605
#	60341
#	76958
#	92470
#	110442
#	122622
#	137949
#	158390
#	170272
#	183941
#
# Disc length: 2696 seconds
#
# Revision: 0
# Processed by: cddbd v1.4PL0 Copyright (c) Steve Scherf et al.
# Submitted via: dBpowerAMP V4.0
#
DISCID=9b0a860d
DTITLE=Various Artist - Hammer In The Delta - Habitat For Humanity
DYEAR=1900
DGENRE=Blues
TTITLE0=Mississippi - Delaney Bramlett
TTITLE1=Do You Know Him - The Revelators
TTITLE2=Jinx Blues - Alvin Youngblood Hart
TTITLE3=High Heel Sneakers - Cary Hudson
TTITLE4=Down To The Levee - Mohead
TTITLE5=Catfish Blues - Big T and The Family
TTITLE6=Boll Weevil Blues - Taylor Grocery Band
TTITLE7=Drum Island - Stax Rhythm Section
TTITLE8=Riverman - John Ruskey
TTITLE9=Youg Folks With The Blues - Wesely Jefferson Band with Super Chikan
TTITLE10=Rhythm Of Spring - Charlie Jacobs
TTITLE11=At Last - Blues Prodigy
TTITLE12=Home - Blue Mother Tupelo
EXTD=
EXTT0=
EXTT1=
EXTT2=
EXTT3=
EXTT4=
EXTT5=
EXTT6=
EXTT7=
EXTT8=
EXTT9=
EXTT10=
EXTT11=
EXTT12=
PLAYORDER=
